<mxfile host="app.diagrams.net" agent="Mozilla/5.0 (X11; Linux x86_64) AppleWebKit/537.36 (KHTML, like Gecko) Chrome/128.0.0.0 Safari/537.36" version="24.7.17">
  <diagram name="Page-1" id="P0O_zA8OEDn08KMoRdnK">
    <mxGraphModel dx="600" dy="349" grid="1" gridSize="10" guides="1" tooltips="1" connect="1" arrows="1" fold="1" page="1" pageScale="1" pageWidth="827" pageHeight="1169" math="1" shadow="0">
      <root>
        <mxCell id="0" />
        <mxCell id="1" parent="0" />
        <mxCell id="i4GbqhEK52aCaHwYv6Ji-1" value="" style="ellipse;whiteSpace=wrap;html=1;aspect=fixed;" vertex="1" parent="1">
          <mxGeometry x="370" y="280" width="80" height="80" as="geometry" />
        </mxCell>
        <mxCell id="i4GbqhEK52aCaHwYv6Ji-2" value="" style="ellipse;whiteSpace=wrap;html=1;aspect=fixed;fillColor=none;" vertex="1" parent="1">
          <mxGeometry x="262.5" y="170" width="297.5" height="297.5" as="geometry" />
        </mxCell>
        <mxCell id="i4GbqhEK52aCaHwYv6Ji-3" value="" style="ellipse;whiteSpace=wrap;html=1;aspect=fixed;fillColor=#d5e8d4;strokeColor=#82b366;" vertex="1" parent="1">
          <mxGeometry x="400" y="310" width="20" height="20" as="geometry" />
        </mxCell>
        <mxCell id="i4GbqhEK52aCaHwYv6Ji-5" value="" style="verticalLabelPosition=bottom;verticalAlign=top;html=1;shape=mxgraph.basic.arc;startAngle=0.9983069261759022;endAngle=0.5;fillColor=#dae8fc;strokeColor=#6c8ebf;" vertex="1" parent="1">
          <mxGeometry x="320" y="170" width="180" height="190" as="geometry" />
        </mxCell>
        <mxCell id="i4GbqhEK52aCaHwYv6Ji-7" value="" style="endArrow=classic;startArrow=classic;html=1;rounded=0;entryX=0.503;entryY=-0.001;entryDx=0;entryDy=0;entryPerimeter=0;exitX=0.5;exitY=0.5;exitDx=0;exitDy=0;exitPerimeter=0;fillColor=#f8cecc;gradientColor=#ea6b66;strokeColor=#b85450;" edge="1" parent="1" source="i4GbqhEK52aCaHwYv6Ji-3" target="i4GbqhEK52aCaHwYv6Ji-5">
          <mxGeometry width="50" height="50" relative="1" as="geometry">
            <mxPoint x="390" y="360" as="sourcePoint" />
            <mxPoint x="440" y="310" as="targetPoint" />
          </mxGeometry>
        </mxCell>
        <mxCell id="i4GbqhEK52aCaHwYv6Ji-8" value="" style="endArrow=classic;startArrow=classic;html=1;rounded=0;exitX=0.5;exitY=0.5;exitDx=0;exitDy=0;exitPerimeter=0;fillColor=#ffcd28;gradientColor=#ffa500;strokeColor=#d79b00;" edge="1" parent="1" source="i4GbqhEK52aCaHwYv6Ji-3" target="i4GbqhEK52aCaHwYv6Ji-5">
          <mxGeometry width="50" height="50" relative="1" as="geometry">
            <mxPoint x="390" y="330" as="sourcePoint" />
            <mxPoint x="440" y="280" as="targetPoint" />
          </mxGeometry>
        </mxCell>
        <mxCell id="i4GbqhEK52aCaHwYv6Ji-9" value="" style="endArrow=classic;html=1;rounded=0;exitX=0.501;exitY=1.001;exitDx=0;exitDy=0;exitPerimeter=0;entryX=0.597;entryY=0.639;entryDx=0;entryDy=0;entryPerimeter=0;fillColor=#e1d5e7;strokeColor=#9673a6;" edge="1" parent="1" source="i4GbqhEK52aCaHwYv6Ji-5" target="i4GbqhEK52aCaHwYv6Ji-2">
          <mxGeometry width="50" height="50" relative="1" as="geometry">
            <mxPoint x="370" y="340" as="sourcePoint" />
            <mxPoint x="420" y="290" as="targetPoint" />
          </mxGeometry>
        </mxCell>
        <mxCell id="i4GbqhEK52aCaHwYv6Ji-10" value="" style="endArrow=classic;html=1;rounded=0;exitX=0.5;exitY=0;exitDx=0;exitDy=0;fillColor=#008a00;strokeColor=#005700;" edge="1" parent="1" source="i4GbqhEK52aCaHwYv6Ji-2">
          <mxGeometry width="50" height="50" relative="1" as="geometry">
            <mxPoint x="380" y="280" as="sourcePoint" />
            <mxPoint x="380" y="169" as="targetPoint" />
          </mxGeometry>
        </mxCell>
        <mxCell id="i4GbqhEK52aCaHwYv6Ji-12" value="$$\Delta v_2$$" style="text;html=1;align=center;verticalAlign=middle;whiteSpace=wrap;rounded=0;" vertex="1" parent="1">
          <mxGeometry x="380" y="140" width="40" height="30" as="geometry" />
        </mxCell>
        <mxCell id="i4GbqhEK52aCaHwYv6Ji-13" value="$$\Delta v_1$$" style="text;html=1;align=center;verticalAlign=middle;whiteSpace=wrap;rounded=0;" vertex="1" parent="1">
          <mxGeometry x="400" y="360" width="40" height="30" as="geometry" />
        </mxCell>
        <mxCell id="i4GbqhEK52aCaHwYv6Ji-15" value="$$a_1=r_{p,t}$$" style="text;html=1;align=center;verticalAlign=middle;whiteSpace=wrap;rounded=0;" vertex="1" parent="1">
          <mxGeometry x="394" y="330" width="40" height="20" as="geometry" />
        </mxCell>
        <mxCell id="i4GbqhEK52aCaHwYv6Ji-16" value="$$a_2=r_{a,t}$$" style="text;html=1;align=center;verticalAlign=middle;whiteSpace=wrap;rounded=0;" vertex="1" parent="1">
          <mxGeometry x="391.25" y="220" width="40" height="20" as="geometry" />
        </mxCell>
      </root>
    </mxGraphModel>
  </diagram>
</mxfile>
